<?xml version="1.0" encoding="utf-8" ?>
<svg xmlns="http://www.w3.org/2000/svg" xmlns:xlink="http://www.w3.org/1999/xlink" width="512" height="512">
	<path fill="#201F1F" d="M324.993 509.187L83.25 501.747C41.7842 497.873 43.6449 459.57 43.6169 426.875L43.6968 134.492C43.7582 132.131 44.385 129.851 44.4629 127.532L45.0857 98.4123C45.289 89.2897 45.3159 80.2122 46.1223 71.1211L46.3569 68.9668C50.7087 37.1252 81.2932 32.5817 108.285 32.5108C111.829 32.5014 115.691 32.2004 119.193 32.7267L119.531 32.7803C118.594 3.19492 150.06 -4.59888 157.24 23C160.483 35.4648 151.321 33.9001 169.164 33.9502L192.183 34.0173C195.705 34.0299 199.53 33.7785 202.987 34.4775L203.388 34.5619C203.773 26.0102 204.274 17.278 210.831 10.8725C217.83 4.03509 229.298 3.51179 236.191 10.8071C241.872 16.8205 243.376 26.6306 243.186 34.5666L288.805 34.8312C289.182 33.3678 289.129 31.7552 289.302 30.2522C293.034 -2.2796 323.213 3.67648 326.35 24.5416L326.416 25C326.924 28.3678 326.74 31.9015 326.734 35.3055L372.964 36.7732C373.077 33.2911 373.158 29.8143 374.095 26.4316L374.342 25.5215C376.904 15.7686 386.227 8.99693 396.351 12.0926L396.75 12.2185C409.927 16.2561 410.304 30.3483 410.461 41.607C428.081 41.6863 449.549 43.847 460.397 59.8357C469.737 73.6022 468.514 91.1562 468.506 107.013L468.37 451.25L467.327 462.988C464.788 494.274 445.882 503.173 417.77 505.498L372.301 508.327L324.993 509.187ZM456.993 423.316L457 224.865L457.019 210.461L456.531 101.387C456.131 89.96 456.913 72.441 447.09 64.7242C441.584 64.713 423.61 64.7261 420.102 69.3502C415.377 75.5778 418.956 84.1117 406.469 91.625C398.758 96.2641 389.07 97.5063 380.352 95.3111C365.946 91.6835 361.743 76.6515 361.325 63.4931L335.417 63.3274C335.225 70.8707 334.239 79.8029 328.456 85.2859C322.879 90.5728 311.38 94.8252 305.49 87.9623C305.044 87.4434 304.501 87.0121 304.452 86.3209L304.555 86.1673C304.389 85.9476 302.843 85.4293 302.5 85.2714C296.693 82.5997 296.366 79.6564 292.656 76.1586L292.434 75.9709C291.428 75.858 290.563 74.7169 289.868 73.9923L284.188 68.0964C278.179 62.1428 271.725 60.1971 263.423 60.2659C247.828 60.3952 248.551 64.6155 239.257 74.0505L238.798 73.9088C234.085 79.545 229.897 83.0105 221.804 81.8555L221.375 81.7904C211.166 80.3461 206.349 70.1647 204.599 60.9109C198.158 59.3949 175.665 59.9938 169.719 61.3285C168.196 69.0537 167.034 77.2105 160.01 81.9347C156.069 84.5857 145.094 88.5109 140.74 85.0473C114.08 83.3293 122.094 48.2864 120.207 46.0071C119.747 45.4522 111.121 45.8463 109.905 45.8452C82.126 45.8209 60.4332 48.0336 57.5108 79.1745L55.8299 114.5C55.5245 121.33 54.7546 129.194 54.6697 135.847L54.601 189.429C54.5804 193.014 54.0246 196.526 54.0049 200.125L53.9753 448.246C53.9912 460.567 54.0479 475.268 63.2317 484.674C73.6848 495.38 88.9696 494.276 102.742 494.938L169.75 498.643C171.545 498.728 173.356 499.085 175.163 499.199L243.875 500.052C246.582 500.115 249.263 500.566 252 500.586L320.079 500.6L362.75 499.968L391.782 498.642C434.93 496.777 456.9 499.344 456.987 445.32L456.993 423.316ZM304.555 86.1673L304.452 86.3209C304.501 87.0121 305.044 87.4434 305.49 87.9623C311.38 94.8252 322.879 90.5728 328.456 85.2859C334.239 79.8029 335.225 70.8707 335.417 63.3274L361.325 63.4931C361.743 76.6515 365.946 91.6835 380.352 95.3111C389.07 97.5063 398.758 96.2641 406.469 91.625C418.956 84.1117 415.377 75.5778 420.102 69.3502C423.61 64.7261 441.584 64.713 447.09 64.6761C439.914 58.3385 428.834 55.8332 419.442 54.6246C417.72 54.4029 410.72 53.2288 409.524 53.4974C409.43 64.7406 409.36 79.3567 398.25 85.7263L397.997 85.8742C396.833 86.5338 395.316 87.0232 394 87.2577L393.617 87.329C377.267 90.1423 372.441 74.1935 372.372 60.9699L372.321 49.9438L326.716 48.2293C326.716 60.943 327.302 75.3606 315.125 83.2017C312.156 85.1133 308.107 86.4665 304.555 86.1673ZM140.74 85.0473C145.094 88.5109 156.069 84.5857 160.01 81.9347C167.034 77.2105 168.196 69.0537 169.719 61.3285C175.665 59.9938 198.158 59.3949 204.599 60.9838L204.529 60.6354C203.744 56.5254 204.031 51.9617 203.729 47.7685L169.395 46.8556C165.795 46.8383 162.032 46.5847 158.459 46.8776C159.336 60.4233 158.473 82.8939 140.74 85.0473ZM238.798 73.9088L239.257 74.0505C248.551 64.6155 247.828 60.3952 263.423 60.2659C271.725 60.1971 278.179 62.1428 284.188 68.0964L289.868 73.9923C290.563 74.7169 291.428 75.858 292.434 75.9709C286.316 66.0861 290.397 56.7981 288.654 48.3332L242.906 47.7078C242.697 49.0598 242.966 50.7287 242.992 52.125C243.135 60.0367 242.723 66.7689 238.798 73.9088ZM217.221 30.3964L217.423 30.3096C218.543 29.8179 218.85 29.5256 219.347 28.4087C220.367 26.1176 221.132 31.252 221.217 31.8192L221.275 32.3471C222.7 38.7768 222.929 45.4129 224.402 51.8254C225.119 54.9455 227.133 61.6262 228.882 64.228C231.665 56.7591 233.479 26.8813 228.41 21.0174C225.707 17.8901 221.953 18.5643 219.244 21.279C216.852 23.6769 217.267 27.2665 217.221 30.3964ZM133.264 32.1074L134.016 32.375C134.097 31.9182 134.05 31.8433 134.377 31.4866L133.907 30.125L134.391 30.4626L136 29.9387C136.478 30.3212 136.488 30.4206 137.125 30.5L137.366 30.7196C138.163 31.3566 140.983 32.4904 142.029 32.9707L142.784 33.4658C143.304 33.9241 145.862 34.7318 146.444 34.7013C146.257 31.1897 146.09 25.7253 144.146 22.6557C142.021 19.3002 137.42 19.3356 134.852 22.1171C132.666 24.4849 133.279 29.0857 133.264 32.1074Z"/>
	<defs>
		<linearGradient id="gradient_0" gradientUnits="userSpaceOnUse" x1="218.07832" y1="67.098869" x2="227.32912" y2="29.555939">
			<stop offset="0" stop-color="#BFBEBE"/>
			<stop offset="1" stop-color="#E5E7E3"/>
		</linearGradient>
	</defs>
	<path fill="url(#gradient_0)" d="M217.264 30.3964L217.423 30.3096C218.543 29.8179 218.85 29.5256 219.347 28.4087C220.367 26.1176 221.132 31.252 221.217 31.8192L221.275 32.3471C222.7 38.7768 222.929 45.4129 224.402 51.8254C225.119 54.9455 227.133 61.6262 228.882 64.228C228.221 67.8041 223.866 70.0299 220.96 67.2924C216.206 62.8137 217.281 45.8284 217.268 39.7954L217.264 30.3964Z"/>
	<defs>
		<linearGradient id="gradient_1" gradientUnits="userSpaceOnUse" x1="131.29314" y1="66.355179" x2="146.95807" y2="35.381077">
			<stop offset="0" stop-color="#CECDCD"/>
			<stop offset="1" stop-color="white"/>
		</linearGradient>
	</defs>
	<path fill="url(#gradient_1)" d="M133.329 32.1074L134.016 32.375C134.097 31.9182 134.05 31.8433 134.377 31.4866L133.907 30.125L134.391 30.4626L136 29.9387C136.478 30.3212 136.488 30.4206 137.125 30.5L137.366 30.7196C138.163 31.3566 140.983 32.4904 142.029 32.9707L142.784 33.4658C143.304 33.9241 145.862 34.7318 146.444 34.7013C146.013 42.8963 149.701 67.8564 139.74 71.3637C131.561 66.9127 133.357 57.3902 133.345 49.5138L133.329 32.1074Z"/>
	<defs>
		<linearGradient id="gradient_2" gradientUnits="userSpaceOnUse" x1="386.68817" y1="73.141403" x2="395.22806" y2="25.281385">
			<stop offset="0" stop-color="#CCCDCD"/>
			<stop offset="1" stop-color="white"/>
		</linearGradient>
	</defs>
	<path fill="url(#gradient_2)" d="M386.203 68.4222C384.695 63.7443 384.605 29.3561 386.247 26.6242C388.691 22.5574 397.923 24.5831 398.385 33.0865C398.632 37.6264 398.614 65.0064 396.323 68.6602L396.148 69.2987C393.607 77.0143 388.662 74.2209 386.203 68.4222Z"/>
	<defs>
		<linearGradient id="gradient_3" gradientUnits="userSpaceOnUse" x1="311.08398" y1="70.436958" x2="305.82657" y2="21.734621">
			<stop offset="0" stop-color="#D3D5D1"/>
			<stop offset="1" stop-color="white"/>
		</linearGradient>
	</defs>
	<path fill="url(#gradient_3)" d="M307.417 20.7636C316.927 20.7604 314.909 36.4299 314.887 42.5C314.871 46.9114 316.567 71.2624 309.625 71.1978C307.169 70.5967 303.722 68.9995 302.95 66.4139L302.875 66.125C301.949 62.7571 302.03 59.0086 301.997 55.5326L301.935 43.3438C301.909 36.3309 299.468 23.5364 307.417 20.7636Z"/>
	<defs>
		<linearGradient id="gradient_4" gradientUnits="userSpaceOnUse" x1="225.01694" y1="511.79276" x2="286.358" y2="44.157673">
			<stop offset="0" stop-color="#F9DC7A"/>
			<stop offset="1" stop-color="#9FB5AA"/>
		</linearGradient>
	</defs>
	<path fill="url(#gradient_4)" d="M456.993 423.316L456.987 445.32C456.9 499.344 434.93 496.777 391.782 498.642L362.75 499.968L320.079 500.6L252 500.586C249.263 500.566 246.582 500.115 243.875 500.052L175.163 499.199C173.356 499.085 171.545 498.728 169.75 498.643L102.742 494.938C88.9696 494.276 73.6848 495.38 63.2317 484.674C54.0479 475.268 53.9912 460.567 53.9753 448.246L54.0049 200.125C54.0246 196.526 54.5804 193.014 54.601 189.429L54.6697 135.847C54.7546 129.194 55.5245 121.33 55.8299 114.5L57.5108 79.1745C60.4332 48.0336 82.126 45.8209 109.905 45.8452C111.121 45.8463 119.747 45.4522 120.207 46.0071C122.094 48.2864 114.08 83.3293 140.74 85.0473C145.094 88.5109 156.069 84.5857 160.01 81.9347C167.034 77.2105 168.196 69.0537 169.719 61.3285C175.665 59.9938 198.158 59.3949 204.599 60.9109C206.349 70.1647 211.166 80.3461 221.375 81.7904L221.804 81.8555C229.897 83.0105 234.085 79.545 238.798 73.9088L239.257 74.0505C248.551 64.6155 247.828 60.3952 263.423 60.2659C271.725 60.1971 278.179 62.1428 284.188 68.0964L289.868 73.9923C290.563 74.7169 291.428 75.858 292.434 75.9709L292.656 76.1586C296.366 79.6564 296.693 82.5997 302.5 85.2714C302.843 85.4293 304.389 85.9476 304.555 86.1673L304.452 86.3209C304.501 87.0121 305.044 87.4434 305.49 87.9623C311.38 94.8252 322.879 90.5728 328.456 85.2859C334.239 79.8029 335.225 70.8707 335.417 63.3274L361.325 63.4931C361.743 76.6515 365.946 91.6835 380.352 95.3111C389.07 97.5063 398.758 96.2641 406.469 91.625C418.956 84.1117 415.377 75.5778 420.102 69.3502C423.61 64.7261 441.584 64.713 447.09 64.7242C456.913 72.441 456.131 89.96 456.531 101.387L457.019 210.461L457 224.865L456.993 423.316ZM229.212 475.52L229.398 474.875C229.688 474.09 229.683 473.374 229.919 472.589L230.045 472.21C230.309 471.347 230.632 471.005 231.156 470.339L225.46 470.255L130.183 470.057C128.304 469.941 126.483 469.579 124.625 469.404C114.185 468.425 104.468 469.479 94.5 464.481C86.8521 460.646 80.8576 453.781 78.1966 445.659C77.3593 446.846 77.6147 447.164 77.8253 448.621L78.5772 453.499C79.4566 458.64 83.4131 469.157 87.625 472.208C91.4116 474.951 97.4931 475.652 102.016 476.254L109.117 477.152C115.469 477.65 121.901 477.536 128.269 477.534L208.63 477.332L229.212 475.52Z"/>
	<path fill="#F7E9E0" d="M225.46 470.241L288.674 468.234L291.242 468.376C280.109 470.044 265.419 469.015 253.889 469.811C251.844 469.953 250.163 469.593 248.125 470.168C248.372 470.676 248.406 470.726 248.327 471.279L247.162 472.132C246.778 472.42 246.711 472.662 246.486 473.07L245.822 474.134C243.763 474.542 246.23 475.198 247.188 474.938L247.625 474.75C248.501 474.486 249.415 475.057 250.25 474.5C253.014 474.435 270.202 472.698 271.25 472C272.363 471.974 282.98 470.93 283.25 470.75C285.171 470.75 286.999 470.697 288.875 470.25L246.006 475.377C240.485 475.768 234.755 475.495 229.212 475.485L229.398 474.875C229.688 474.09 229.683 473.374 229.919 472.589L230.045 472.21C230.309 471.347 230.632 471.005 231.156 470.339L225.46 470.241Z"/>
	<path fill="#F7E9E0" d="M435.378 208.383L435.067 208.585C436.652 215.488 432.266 214.058 439 214.689L439.75 214.689C442.051 214.683 451.077 214.512 452.375 215.377L456.685 215.023C456.591 214.448 456.201 206.88 457.097 210.461L457 224.865L435.362 224.737C435.361 226.473 435.491 228.328 435.306 230.048L435.378 208.383Z"/>
	<path fill="#201F1F" d="M78.1966 445.659C78.2711 445.018 77.7994 443.677 77.6644 443C76.2145 435.72 75.4814 427.438 75.4523 419.96L74.8932 372.751L75.3218 171.125C75.4564 168.671 75.4105 166.237 75.6757 163.786C78.7332 135.53 101.288 129.328 125.021 129.37L169.704 129.492C171.994 129.561 174.239 130.189 176.484 130.209L225.966 130.306C228.348 130.366 230.683 130.837 233.036 130.913L251.86 131.063C253.824 131.156 255.757 131.618 257.704 131.672L276.917 131.827C279.099 131.902 281.228 132.387 283.391 132.428L303.75 132.575C306.186 132.638 308.561 133.073 310.978 133.152L349.032 134.471L394.119 137.971C410.749 140.065 429.038 145.174 433.597 163.71C434.643 167.963 435.191 178.665 435.338 183.75L435.353 208.383L435.378 230.048L435.463 337.249C435.3 339.731 431.21 341.478 429.125 341.159C422.518 340.148 423.659 331.949 423.674 327.18L423.795 301.719C423.87 298.959 424.521 296.328 424.544 293.57L425.018 176.384C425.007 154.604 423.068 150.824 398.609 147.661C385.44 145.959 372.158 145.026 358.885 144.604C348.822 144.284 339.118 143.702 329.071 143.451L188.853 143.07L123.309 143.435C99.2866 144.491 88.816 148.854 88.7456 174.37L88.7794 188.875C88.8563 190.832 89.2233 192.764 89.306 194.734L89.3688 276.375C89.3462 279.055 88.8556 281.67 88.7878 284.355L88.7183 306.839L88.7085 412.816C88.7813 454.437 102.932 457.407 143.008 457.473L228.176 457.414C230.693 457.371 233.113 456.739 235.646 456.688L274.759 455.453L332.549 449.975L331.973 445.007C331.466 440.925 331.543 436.789 331.539 432.681L331.559 401.723C331.577 392.265 332.183 383.904 338.351 376.294C344.661 369.724 351.841 366.489 361.148 366.285C380.598 365.858 400.379 371.017 418.915 376.374C422.264 377.342 428.187 378.285 430.661 380.766C433.39 383.502 432.039 387.948 429.442 390.201L419.965 397.166L419.75 397.303C404.652 407.055 386.16 426.084 374.017 439.098C354.119 460.422 357.294 463.155 328.797 465.438L302.699 467.334C298.096 467.571 293.205 467.447 288.674 468.234L225.46 470.254L130.183 470.057C128.304 469.941 126.483 469.579 124.625 469.404C114.185 468.425 104.468 469.479 94.5 464.481C86.8521 460.646 80.8576 453.781 78.1966 445.659Z"/>
	<path fill="#F5F7F4" d="M363.22 379.355C379.128 379.244 395.7 384.037 410.987 387.916C397.834 396.047 382.697 411.235 371.755 422.024L348.608 444.773C346.033 430.615 346.22 421.099 346.227 406.742C346.234 391.572 343.127 380.501 363.22 379.355Z"/>
	<path fill="#F7E9E0" d="M236.974 304.753L275.136 304.762L269.916 305.089C273.383 310.137 277.926 314.734 281.917 319.391C290.828 329.788 299.67 340.141 309.572 349.624L332.561 370.298C334.569 372.08 336.967 373.96 338.351 376.294C332.183 383.904 331.577 392.265 331.559 401.723L331.539 432.681C331.543 436.789 331.466 440.925 331.973 445.007L332.549 449.975L274.759 455.453L235.646 456.688C233.113 456.739 230.693 457.371 228.176 457.414L143.008 457.473C102.932 457.407 88.7813 454.437 88.7085 412.816L88.719 306.839C90.9902 307.576 92.4212 309.244 94.1906 310.713C121.234 333.165 176.872 344.028 212.153 342.916C230.626 342.333 237.359 337.707 237.459 319.072L236.974 304.753Z"/>
	<path fill="#201F1F" d="M145.639 364.784L227.17 364.711C231.373 364.708 235.745 364.47 239.932 364.741C246.98 365.198 248.311 377.383 238.641 378.601L157.548 378.99C154.25 379.008 150.921 379.367 147.64 379.284C137.534 379.029 136.741 367.557 145.639 364.784Z"/>
	<path fill="#F5F7F4" d="M88.7425 306.839L88.7878 284.355C88.8556 281.67 89.3462 279.055 89.3688 276.375L89.306 194.734C89.2233 192.764 88.8563 190.832 88.7794 188.875L88.7456 174.37C88.816 148.854 99.2866 144.491 123.309 143.435L188.853 143.062L329.071 143.451C339.118 143.702 348.822 144.284 358.885 144.604C372.158 145.026 385.44 145.959 398.609 147.661C423.068 150.824 425.007 154.604 425.018 176.384L424.544 293.57C424.521 296.328 423.87 298.959 423.795 301.719L423.674 327.18C423.659 331.949 422.518 340.148 429.125 341.159C431.21 341.478 435.3 339.731 435.463 337.249L435.391 230.048C435.491 228.328 435.361 226.473 435.362 224.737L457.009 224.865L456.993 423.316L455.875 423.029C452.563 407.891 440.451 394.846 423.914 396.839C422.579 397 421.242 397.605 419.965 397.166L429.442 390.201C432.039 387.948 433.39 383.502 430.661 380.766C428.187 378.285 422.264 377.342 418.915 376.374C400.379 371.017 380.598 365.858 361.148 366.285C351.841 366.489 344.661 369.724 338.351 376.294C336.967 373.96 334.569 372.08 332.561 370.298L309.572 349.624C299.67 340.141 290.828 329.788 281.917 319.391C277.926 314.734 273.383 310.137 269.916 305.089L275.136 304.782L236.974 304.759L237.459 319.072C237.359 337.707 230.626 342.333 212.153 342.916C176.872 344.028 121.234 333.165 94.1906 310.713C92.4212 309.244 90.9902 307.576 88.7425 306.839Z"/>
	<path fill="#201F1F" d="M329.938 219.554L359.28 219.308C364.62 219.308 370.319 218.896 375.611 219.448C384.176 220.342 383.095 231.54 374.609 233.219L366.266 233.092C364.92 233.006 363.602 232.694 362.25 232.655L333.298 232.676C331.745 232.696 329.722 232.978 328.281 232.41L328 232.289C320.194 229.098 322.919 220.911 329.938 219.554Z"/>
	<path fill="#201F1F" d="M373.652 290.705C385.158 290.105 385.28 304.231 372.466 304.172L364.856 304.137C353.808 304.129 342.626 303.698 331.625 304.736L330.5 304.639C322.048 304.615 319.299 292.186 328.834 290.748C330.517 290.495 332.431 290.702 334.145 290.707L364.125 290.731C367.288 290.725 370.497 290.542 373.652 290.705Z"/>
	<path fill="#E2E0B9" d="M88.7425 306.839L88.7878 284.355C88.8556 281.67 89.3462 279.055 89.3688 276.375L89.306 194.734C89.2233 192.764 88.8563 190.832 88.7794 188.875L88.7456 174.37C88.816 148.854 99.2866 144.491 123.309 143.435L188.853 143.062L180.74 143.369C181.693 144.308 182.228 146.884 182.928 148.224L218.542 215.68C219.076 216.67 219.735 217.756 219.875 218.88L221.884 219.218L288.868 219.227C291.166 219.221 293.757 218.98 296.023 219.277C304.192 220.347 302.081 231.634 295.451 232.572C293.469 232.853 291.196 232.628 289.182 232.621L230.689 232.59L227.166 232.85C229.138 236.95 231.951 240.506 234.328 244.369C237.602 249.689 240.352 255.349 243.777 260.567C246.33 264.456 249.461 267.984 252.256 271.705C254.488 274.273 262.955 287.423 260.814 290.781L283.644 290.754C287.081 290.757 291.142 290.318 294.5 290.991C301.778 292.449 301.969 302.95 295.247 304.545C293.177 305.036 290.583 304.757 288.441 304.76L275.136 304.763L236.974 304.759L237.459 319.072C237.359 337.707 230.626 342.333 212.153 342.916C176.872 344.028 121.234 333.165 94.1906 310.713C92.4212 309.244 90.9902 307.576 88.7425 306.839Z"/>
	<path fill="#F7E9E0" d="M252.256 271.705C254.488 274.273 262.955 287.423 260.814 290.781L240.137 290.751L234.45 290.448L243.181 271.458C245.172 272.012 250.146 272.957 251.98 271.885L252.256 271.705Z"/>
	<path fill="#201F1F" d="M221.884 219.272L288.868 219.227C291.166 219.221 293.757 218.98 296.023 219.277C304.192 220.347 302.081 231.634 295.451 232.572C293.469 232.853 291.196 232.628 289.182 232.621L230.689 232.59L147.555 232.845C141.499 232.604 138.654 224.879 144.415 220.601L144.727 220.375C147.406 218.389 152.515 219.314 155.678 219.307L221.884 219.272Z"/>
	<path fill="#201F1F" d="M240.137 290.752L260.814 290.758L283.644 290.754C287.081 290.757 291.142 290.318 294.5 290.991C301.778 292.449 301.969 302.95 295.247 304.545C293.177 305.036 290.583 304.757 288.441 304.76L275.136 304.763L236.974 304.759L147.155 304.872C138.384 303.82 138.377 291.587 147.488 290.917C151.545 290.618 155.686 290.763 159.754 290.762L240.137 290.752Z"/>
</svg>
