<?xml version="1.0" encoding="utf-8" ?>
<svg xmlns="http://www.w3.org/2000/svg" xmlns:xlink="http://www.w3.org/1999/xlink" width="512" height="512">
	<path fill="#E2E0B9" d="M129.072 172.175L132.173 172.159C133.944 173.217 135.097 174.392 134.246 176.56C132.469 175.51 130.91 173.417 129.072 172.175Z"/>
	<path fill="#F7E9E0" d="M237.979 508.719L248.25 508.354C250.309 508.321 252.415 508.122 254.464 508.357C252.592 510.138 241.047 509.212 237.979 508.719Z"/>
	<path fill="#191818" d="M129.072 172.175L126.858 171.74C123.831 171.156 123.337 168.286 122.468 165.75L120.084 157.875C115.499 139.963 113.807 121.809 118.509 103.712C121.997 90.2833 123.931 86.4657 134.75 79.0896C143.385 73.2023 143.74 59.08 141.884 49.6713C139.729 38.7484 134.169 28.0692 137.506 16.7339C140.122 7.84867 147.433 9.78694 154.61 12.0572L164.5 15.7147C173.372 19.4389 181.422 25.1419 190.635 20.375C205.139 12.8701 217.744 2.26991 234.948 2.03148L244.478 2.01239C249.183 2.01689 254.335 1.62996 258.976 2.22886C278.494 4.74744 296.34 13.92 311.583 26.1116C313.691 27.7972 324.929 37.3638 326.719 37.528C327.153 37.5679 328.103 37.222 328.588 37.1199L343.542 33.977C352.233 32.601 360.514 34.2962 367.641 39.5427C386.592 53.4921 386.375 84.3408 385.695 105.625C385.59 108.924 385.738 112.614 385.052 115.839L378.219 172.749L368.938 173.798C368.141 173.811 367.41 173.904 366.653 173.625L374.718 115.763C375.601 105.364 376.181 95.0268 375.513 84.5758C369.822 83.4269 360.568 59.5566 339.172 56.7833C332.953 55.9772 327.149 57.5033 321.302 54.4897C314.785 51.1311 309.204 45.9653 303.169 41.8328C265.242 15.8633 244.753 15.4608 205.023 33.5042C199.714 35.9153 194.325 38.8398 188.633 40.2057C179.385 42.4249 168.989 37.0522 161.29 38.7995C158.335 41.8694 157.552 55.285 156.939 59.5133L155.276 68.556C152.367 82.3903 147.213 86.7128 143.026 97.875C141.453 102.067 138.097 121.198 134.656 121.246C132.229 121.279 130.025 119.881 127.625 120.008L127.393 119.314C126.528 135.313 129.493 149.809 134.475 165.042C135.916 169.449 137.122 171.522 132.173 172.159L129.072 172.175Z"/>
	<path fill="#E2E0B9" d="M127.393 119.314L128.667 109.404C130.099 101.702 131.831 93.0793 138.612 88.4009C152.449 78.8539 155.214 60.8768 151.16 45.4331C148.956 37.04 144.109 29.1502 145.75 20.24C153.382 21.1847 161.036 24.9521 168.031 28.0502C181.721 34.1138 185.163 35.4028 198.319 27.4473C204.622 23.6354 210.836 19.5416 217.498 16.375C243.26 4.13096 274.504 12.2511 297.113 27.5033L315.14 41.3677C321.612 46.6262 323.209 47.7803 331.301 45.8888C341.426 43.5222 353.19 41.1815 361.875 48.6014C372.114 57.349 374.296 71.9295 375.325 84.5758C369.822 83.4269 360.568 59.5566 339.172 56.7833C332.953 55.9772 327.149 57.5033 321.302 54.4897C314.785 51.1311 309.204 45.9653 303.169 41.8328C265.242 15.8633 244.753 15.4608 205.023 33.5042C199.714 35.9153 194.325 38.8398 188.633 40.2057C179.385 42.4249 168.989 37.0522 161.29 38.7995C158.335 41.8694 157.552 55.285 156.939 59.5133L155.276 68.556C152.367 82.3903 147.213 86.7128 143.026 97.875C141.453 102.067 138.097 121.198 134.656 121.246C132.229 121.279 130.025 119.881 127.625 120.008L127.393 119.314Z"/>
	<path fill="#A7B9A1" d="M127.298 119.314L127.625 120.008C130.025 119.881 132.229 121.279 134.656 121.246C138.097 121.198 141.453 102.067 143.026 97.875C147.213 86.7128 152.367 82.3903 155.276 68.556L156.939 59.5133C157.552 55.285 158.335 41.8694 161.29 38.7995C168.989 37.0522 179.385 42.4249 188.633 40.2057C194.325 38.8398 199.714 35.9153 205.023 33.5042C244.753 15.4608 265.242 15.8633 303.169 41.8328C309.204 45.9653 314.785 51.1311 321.302 54.4897C327.149 57.5033 332.953 55.9772 339.172 56.7833C360.568 59.5566 369.822 83.4269 375.325 84.5758C376.181 95.0268 375.601 105.364 374.718 115.763L366.653 173.625C367.41 173.904 368.141 173.811 368.938 173.798L378.144 172.749C378.161 173.752 377.585 174.371 377.548 175.277L369.537 175.791C365.799 177.039 362.811 177.659 359.41 179.769L359.464 179.331C359.964 175.17 357.916 170.39 356.42 166.569C348.213 145.602 331.097 115.351 306.05 112.897C302.784 112.577 290.87 111.979 287.747 113.206C287.755 107.548 288.524 100.432 286.513 95L286.37 94.5988C283.477 86.685 278.542 89.3065 273.773 93.8435L266.729 100.44C263.436 103.255 264.017 101.574 259.87 101.316C241.461 100.17 227.624 110.711 214.334 122.381L192.253 143.638C178.047 131.171 163.168 136.016 151.535 149.602C144.041 158.354 141.358 169.233 138.429 180.08L132.621 177.562C133.24 177.137 133.77 177.171 134.246 176.56C135.097 174.392 133.944 173.217 132.173 172.159C137.122 171.522 135.916 169.449 134.475 165.042C129.493 149.809 126.528 135.313 127.298 119.314Z"/>
	<path fill="#191818" d="M132.621 177.562L138.429 180.08C141.358 169.233 144.041 158.354 151.535 149.602C163.168 136.016 178.047 131.171 192.253 143.638L214.334 122.381C227.624 110.711 241.461 100.17 259.87 101.316C264.017 101.574 263.436 103.255 266.729 100.44L273.773 93.8435C278.542 89.3065 283.477 86.685 286.37 94.5988L286.513 95C288.524 100.432 287.755 107.548 287.747 113.206C290.87 111.979 302.784 112.577 306.05 112.897C331.097 115.351 348.213 145.602 356.42 166.569C357.916 170.39 359.964 175.17 359.464 179.331L359.41 179.769C362.811 177.659 365.799 177.039 369.537 175.819L377.548 175.277C385.594 175.578 392.461 179.313 397.864 185.222C418.63 207.936 385.761 242.538 363.342 249.9C361.938 256.895 359.239 263.79 356.47 270.354C347.355 291.961 336.482 306.288 316.939 319.434C310.53 323.745 306.02 319.387 308.093 327.355C316.676 360.345 343.775 360.752 372.93 366.685C406.715 373.56 442.107 382.566 465.766 409.724C480.72 426.89 494.122 461.878 490.407 483.625C488.361 495.602 479.069 503.515 467.21 504.659C453.137 506.016 438.746 505.446 424.607 505.455L353.531 505.493L285.895 506.592L262.692 507.606C259.962 507.723 257.191 508.117 254.464 508.086C252.415 508.122 250.309 508.321 248.25 508.354L237.979 508.569L48.125 501.252C33.0199 499.283 24.775 489.01 22.1504 474.375L21.9717 473.367C21.5325 470.528 21.5965 467.507 21.6633 464.641C22.5903 424.893 55.3495 394.912 90.155 381.37C100.131 377.489 110.637 374.651 120.946 371.795L137.737 367.315C145.411 365.377 152.668 364.88 159.961 363.02C177.211 358.622 190.546 345.662 192.55 327.509L184.514 321.049C163.833 305.217 141.054 273.845 137.515 247.027L137.336 246.892C136.655 247.009 135.939 247.181 135.248 247.087L131.871 246.662C106.825 241.986 82.6119 199.437 109.312 181.159L112.344 179.277C117.854 176.413 126.56 175.67 132.621 177.562Z"/>
	<path fill="#233A58" d="M277.28 424.625C278.656 424.617 279.485 425.943 280.455 426.886L276.017 429.999C267.969 436.209 263.457 440.018 253.228 435.556C250.967 434.511 249.184 432.621 247.58 430.762C256.457 424.982 256.745 428.571 265.489 427.038L271.658 426.09C273.535 425.713 275.408 425.071 277.28 424.625Z"/>
	<path fill="#FA6392" d="M252.865 404.301C253.864 404.239 256.357 403.819 257.173 404.209L257.442 404.398C260.143 406.272 262.42 409.022 264.748 411.357L277.17 423.399C269.718 425.314 264.664 425.579 256.938 425.532C248.731 425.349 240.584 423.699 232.751 421.35L241.943 412.402C245.115 409.257 248.443 405.504 252.865 404.301Z"/>
	<path fill="#FA6392" d="M252.932 446.005L258.617 447.599C261.555 455.737 263.764 464.047 266.977 472.102L277.416 494.726C279.031 498.423 281.342 497.765 275.389 497.768L264.813 497.77L238.73 498.14C244.768 490.24 246.222 474.828 248.208 465.353L252.932 446.005Z"/>
	<path fill="#E8D276" d="M376.195 190.074C378.791 188.061 385.145 190.193 387.515 191.822C397.878 198.945 390.418 213.571 384.674 221.182C374.46 234.717 365.853 235.635 353.226 242.764C353.174 234.897 357.145 227.835 356.375 217.671L355.483 217.228C355.662 215.058 356.494 212.634 357.02 210.51L359.269 201.874C361.205 194.579 362.186 193.244 369.98 191.733L372.299 191.334L376.195 190.074Z"/>
	<path fill="#7B7244" d="M369.98 191.733L372.299 191.334C373.189 192.058 372.637 192.894 373.461 193.512C371.487 194.459 370.778 193.301 369.98 191.733Z"/>
	<path fill="#726640" d="M372.299 191.334L376.195 190.074C375.946 190.61 375.881 190.869 375.422 191.25L375.357 191.579C375.108 192.645 374.53 193.306 373.461 193.512C372.637 192.894 373.189 192.058 372.299 191.334Z"/>
	<path fill="#E2E0B9" d="M45.2597 489.657C38.5134 487.155 34.6222 482.059 33.2462 474.887C27.9591 447.326 46.7677 420.111 68.531 405.058C89.274 390.71 118.058 382.653 142.848 377.79C143.186 377.985 146.884 389.057 147.444 390.569C142.319 397.35 110.235 404.538 101.669 406.929C83.0859 412.116 74.9256 415.413 65.379 433.391C59.5907 444.291 45.0827 476.808 45.2597 489.657Z"/>
	<path fill="#F5F7F4" d="M315.606 367.32C322.065 366.604 328.851 368.34 335.125 369.73L350.867 373.156C343.914 390.978 334.735 433.257 316.855 438.315C313.549 439.25 310.391 437.398 307.633 435.773C296.421 428.505 278.347 411.618 269.118 400.725C287.921 392.82 299.186 370.214 315.606 367.32Z"/>
	<path fill="#F5F7F4" d="M188.382 367.094C196.972 366.031 209.525 378.679 215.596 384.132L224.686 391.797C228.983 395.148 233.355 397.669 238.199 400.111L199.841 436.993L197.875 438.442C180.341 449.885 157.558 384.454 151.858 374.276L188.382 367.094Z"/>
	<path fill="#E2E0B9" d="M357.35 388.736L360.872 374.93C391.3 381.937 424 386.759 448.497 407.917C465.294 422.424 475.255 443.819 479.344 465.331C481.536 476.857 482.313 493.543 467.048 494.741C461.994 495.138 455.203 495.205 449.884 495.344L343.825 495.456L288.125 496.599C288.016 496.488 287.792 496.31 287.741 496.166L287.883 495.6C291.551 492.522 303.876 493.515 308.486 493.186L328.869 491.593C333.193 491.201 337.66 491.454 342 491.357L350.777 491.005C354.373 491.037 357.931 490.138 361.517 490.112L451.06 490.497C456.828 490.491 462.501 490.636 468.228 489.84C474.779 477.118 449.414 431.69 436.964 419.625C422.1 405.222 397.175 400.633 378.02 395.299L357.35 388.736Z"/>
	<path fill="#E8D276" d="M296.585 329.871C299.086 340.419 300.609 348.602 309.334 356.693C308.13 357.575 306.422 358.094 305.094 358.871C298.257 362.869 292.072 368.31 286.568 373.971C279.384 381.36 270.781 391.772 259.625 392.515C243.607 393.582 230.716 383.229 219.229 373.55C212.197 367.422 204.743 360.485 196.02 356.932L196.291 356.665C203.289 349.709 203.291 341.64 203.336 332.583C205.392 333.105 207.826 334.628 209.837 335.462C235.366 346.049 272.512 343.66 296.585 329.871Z"/>
	<path fill="#E8D276" d="M149.146 238.406L142.924 238.594C130.036 239.155 117.891 227.292 112.346 216.606C98.5666 190.049 127.222 185.427 137.194 199.508C139.915 203.351 140.63 209.336 145.484 211.058L145.937 211.215C145.557 213.597 145.668 215.207 146.675 217.449C147.956 219.874 149.14 224.959 148.36 227.555C147.82 228.818 147.241 229.938 146.353 230.995L149.366 232.096C151.039 232.673 152.798 235.157 153.627 236.625L154.236 237.699L154.518 237.574C157.344 243.602 164.278 254.908 168.181 259.646C182.952 277.577 210.791 297.602 232.679 305.5C244.69 309.833 257.934 308.261 270.286 306.485L280.222 304.997C284.673 304.542 289.562 305.141 293.875 304.165C302.008 302.323 314.401 296.254 321 290.877L324.375 288.25C327.37 285.641 330.11 282.734 332.411 279.49C332.136 278.788 331.859 278.131 331.484 277.475L330.585 277.469C329.76 277.486 329.413 277.313 328.737 276.847L328.654 276.345C328.567 275.826 328.433 275.373 328.256 274.879L328.73 273.128C328.889 272.524 329.234 272.089 329.598 271.596L328.625 271.11C324.443 272.011 315.906 271.697 311.389 271.367C317.421 270.18 324.332 273.266 331.404 269.906L331.704 269.765C337.082 267.17 341.72 261.406 344.972 256.573L350.006 248.683C350.511 247.897 351.11 246.567 351.915 246.149C354.628 249.853 345.62 267.641 343.54 272.286C338.029 284.592 329.602 295.206 318.797 303.239C316.259 305.126 313.398 306.537 310.886 308.447C308.751 310.071 307.761 312.576 305.368 313.955C302.988 315.326 299.612 315.592 297 316.762C294.493 317.886 292.146 319.452 289.757 320.809C275.045 329.166 254.539 331.806 237.75 330.387C197.468 326.983 164.198 296.095 152.993 257.865C151.851 253.968 150.952 249.802 150.636 245.751L150.462 241.032C150.432 239.44 150.778 238.89 149.146 238.406Z"/>
	<path fill="#C8AB56" d="M146.675 217.449C147.956 219.874 149.14 224.959 148.36 227.555C147.82 228.818 147.241 229.938 146.353 230.995L145.625 230.962C142.012 229.116 141.406 227.392 143.119 223.941L146.675 217.449Z"/>
	<path fill="#A7B9A1" d="M147.444 390.569L155.019 408.617C162.221 424.369 178.866 458.721 201.52 448.411C209.9 444.597 218.939 431.085 223.161 429.644C229.753 432.837 237.079 437.157 242.577 442.006L234.524 479.682C233.668 483.934 232.798 489.757 230.209 493.324C226.29 499.404 220.552 498.025 214.188 497.841L200.492 497.055C198.678 496.868 196.73 496.797 194.949 496.414C193.55 496.675 190.868 496.052 189.377 495.887L128.125 490.694L63.8042 490.614C57.4924 490.807 51.4706 491.025 45.2597 489.657C45.0827 476.808 59.5907 444.291 65.379 433.391C74.9256 415.413 83.0859 412.116 101.669 406.929C110.235 404.538 142.319 397.35 147.444 390.569Z"/>
	<path fill="#E2E0B9" d="M194.949 496.414C196.214 495.887 205.511 497.116 207.5 497.25L207.876 496.985C208.373 496.992 208.579 496.966 209.038 496.748L209.443 496.551C209.768 496.448 209.902 496.567 210.245 496.362L210.824 496.016C212.401 495.191 222.089 498.67 226.098 496.848L226.438 496.688C227.612 496.162 229.209 494.103 230.166 493.142C227.85 493.471 225.741 494.496 223.349 494.704C216.715 495.282 210.148 495.55 203.48 495.35L196.312 494.84L211.888 494.844C216.61 494.836 221.255 495.051 225.883 493.938C227.525 493.542 228.561 492.709 230.209 493.324C226.29 499.404 220.552 498.025 214.188 497.841L200.492 497.055C198.678 496.868 196.73 496.797 194.949 496.414Z"/>
	<path fill="#A7B9A1" d="M287.741 495.749C286.637 494.243 285.906 491.814 285.103 490.078C278.208 475.177 273.941 459.572 269.148 443.936C275.118 440.398 280.138 436.105 285.052 431.246L292.891 438.125C303.308 447.532 310.708 452.995 324.858 445.743C337.088 439.475 343.434 424.993 348.493 412.909L357.35 388.736L378.02 395.299C397.175 400.633 422.1 405.222 436.964 419.625C449.414 431.69 474.779 477.118 468.228 489.84C462.501 490.636 456.828 490.491 451.06 490.497L361.517 490.112C357.931 490.138 354.373 491.037 350.777 491.005L342 491.357C337.66 491.454 333.193 491.201 328.869 491.593L308.486 493.186C303.876 493.515 291.551 492.522 287.883 495.6L287.741 495.749Z"/>
	<defs>
		<linearGradient id="gradient_0" gradientUnits="userSpaceOnUse" x1="291.88208" y1="305.49585" x2="216.2052" y2="126.76893">
			<stop offset="0" stop-color="#F8E7D1"/>
			<stop offset="1" stop-color="#F5EEED"/>
		</linearGradient>
	</defs>
	<path fill="url(#gradient_0)" d="M145.937 211.215C152.696 207.784 150.25 201.452 150.231 194.528C150.185 178.408 152.136 158.548 168.249 150.236C173.916 147.312 178.147 148.017 182.605 152.448C180.51 156.443 173.308 165.785 174.288 170C175.118 173.575 180.283 176.393 183.832 172.425C185.847 170.171 187.541 167.531 189.329 165.093C199.841 150.764 210.99 138.817 224.773 127.429C235.277 118.75 243.092 113.379 256.642 111.795C254.777 117.819 247 140.372 249.897 146.17C252.604 151.588 258.389 150.468 259.692 143.417C261.444 133.939 264.254 115.273 272.875 109.278C274.412 108.209 275.924 107.309 277.294 106.02L277.922 105.703C277.611 108.151 277.649 110.617 277.442 113.072C276.213 127.676 276.224 124.583 290.413 122.909C330.261 118.208 350.864 167.448 348.699 201.096C348.468 204.693 347.082 217.547 348.987 219.898C352.046 223.672 354.5 220.438 355.483 217.228L356.375 217.671C357.145 227.835 353.174 234.897 353.226 242.764C352.895 243.833 352.632 245.286 351.915 246.149C351.11 246.567 350.511 247.897 350.006 248.683L344.972 256.573C341.72 261.406 337.082 267.17 331.704 269.765L331.404 269.906C324.332 273.266 317.421 270.18 311.389 271.367C315.906 271.697 324.443 272.011 328.625 271.11L329.598 271.596C329.234 272.089 328.889 272.524 328.73 273.128L328.256 274.879C328.433 275.373 328.567 275.826 328.654 276.345L328.737 276.847C329.413 277.313 329.76 277.486 330.585 277.469L331.484 277.475C331.859 278.131 332.136 278.788 332.411 279.49C330.11 282.734 327.37 285.641 324.375 288.25L321 290.877C314.401 296.254 302.008 302.323 293.875 304.165C289.562 305.141 284.673 304.542 280.222 304.997L270.286 306.485C257.934 308.261 244.69 309.833 232.679 305.5C210.791 297.602 182.952 277.577 168.181 259.646C164.278 254.908 157.344 243.602 154.518 237.574L154.236 237.699L153.627 236.625C152.798 235.157 151.039 232.673 149.366 232.096L146.353 230.995C147.241 229.938 147.82 228.818 148.36 227.555C149.14 224.959 147.956 219.874 146.675 217.449C145.668 215.207 145.557 213.597 145.937 211.215Z"/>
	<path fill="#E2E0B9" d="M146.353 230.995C147.241 229.938 147.82 228.818 148.36 227.555C149.775 228.71 149.196 231.239 150.063 231.917C152.08 233.495 153.65 235.084 154.518 237.574L154.236 237.699L153.627 236.625C152.798 235.157 151.039 232.673 149.366 232.096L146.353 230.995Z"/>
	<path fill="#191818" d="M204.218 192.518C206.874 192.412 209.432 192.664 211.032 195.176C212.897 198.104 213.675 216.924 207.494 220.466C203.732 220.72 201.105 218.845 200.259 215.045L200.169 214.625C199.153 210.188 199.238 202.868 200.357 198.46L201.044 196C201.678 194.233 202.524 193.295 204.218 192.518Z"/>
	<path fill="#191818" d="M245.43 243.05C250.233 242.824 252.748 248.967 258.609 250.253L259 250.335C264.006 251.42 266.057 248.206 269.25 248.534C275.121 249.137 273.991 255.457 268.785 258.737C262.522 262.026 254.784 260.967 248.761 257.6C242.322 254 234.889 245.367 245.43 243.05Z"/>
	<path fill="#191818" d="M209.206 167.111C213.345 167.193 217.499 167.022 221.339 168.844C224.663 170.421 227.796 173.627 225.355 177.271C221.567 182.928 215.175 175.599 206.12 177.449C202.374 178.643 199.383 180.938 195.767 182.238C191.668 181.353 188.825 178.088 192.235 174.125C196.484 169.186 202.97 167.48 209.206 167.111Z"/>
	<path fill="#191818" d="M298.696 191.806C304.474 191.7 306.592 195.174 307.068 200.654L307.105 201.125C307.68 207.876 308.298 216.496 300.648 219.303C295.784 219.995 293.175 216.885 292.276 212.334L292.189 211.875C290.886 205.189 290.157 193.641 298.696 191.806Z"/>
	<path fill="#191818" d="M295.17 165.843C300.79 164.698 317.592 169.284 318.958 174.361C319.738 177.263 316.692 181.214 313.875 181.696C311.4 182.119 309.067 180.347 307.156 179.045L305.241 177.807C297.54 173.209 289.483 180.899 284.625 177.704C275.884 171.958 289.718 166.55 295.17 165.843Z"/>
	<path fill="#191818" d="M290.302 264.489C300.26 267.797 297.842 275.162 291.998 281.476C273.859 301.07 238.874 302.26 219.26 284.144C215.315 279.691 213.944 270.551 221 269.837C223.78 269.556 226.359 276.03 228.837 278.091C243.196 290.035 272.821 288.502 284.556 273.257C286.618 270.578 287.869 267.367 290.043 264.791L290.302 264.489Z"/>
</svg>
